<?xml version="1.0" encoding="UTF-8"?>
<svg width="16px" height="16px" viewBox="0 0 16 16" version="1.1" xmlns="http://www.w3.org/2000/svg" xmlns:xlink="http://www.w3.org/1999/xlink">
    <title>icon_view</title>
    <defs>
        <polygon id="path-1" points="0 0 16 0 16 16 0 16"></polygon>
    </defs>
    <g id="-" stroke="none" stroke-width="1" fill="none" fill-rule="evenodd">
        <g id="Blogs_zh_3" transform="translate(-647.000000, -380.000000)">
            <g id="post" transform="translate(400.000000, 320.000000)">
                <g id="info" transform="translate(0.000000, 52.000000)">
                    <g id="view" transform="translate(247.000000, 0.000000)">
                        <g id="icon_view" transform="translate(0.000000, 8.000000)">
                            <mask id="mask-2" fill="white">
                                <use xlink:href="#path-1"></use>
                            </mask>
                            <g id="Clip-2"></g>
                            <path d="M7.9424,4.0632 L7.9424,4.0632 C5.2064,4.0632 2.6544,5.5392 1.3024,7.9232 C2.6544,10.2992 5.2064,11.7792 7.9424,11.7792 C10.6784,11.7792 13.2264,10.2992 14.5824,7.9232 C13.2264,5.5392 10.6784,4.0632 7.9424,4.0632 M6.9024,7.4872 L6.9024,7.4872 C6.8304,7.6592 6.6104,7.7512 6.4304,7.6672 C6.2384,7.6032 6.1544,7.3832 6.2304,7.1952 C6.4224,6.7592 6.7744,6.3952 7.2144,6.2032 C7.4064,6.1352 7.6184,6.2112 7.6944,6.3992 C7.7744,6.5912 7.6944,6.8032 7.5064,6.8832 C7.2304,6.9952 7.0224,7.2152 6.9024,7.4872 M9.0664,7.9232 L9.0664,7.9232 C9.0664,7.7152 9.2304,7.5512 9.4304,7.5512 C9.6384,7.5512 9.7944,7.7152 9.7944,7.9232 C9.7944,8.9432 8.9264,9.7752 7.9424,9.7752 C7.7384,9.7752 7.5744,9.6072 7.5744,9.4072 C7.5744,9.2032 7.7384,9.0392 7.9424,9.0392 C8.4544,9.0392 8.9184,8.6872 9.0384,8.1592 L9.0384,8.1432 C9.0584,8.0712 9.0664,7.9992 9.0664,7.9232 M7.9424,5.5472 L7.9424,5.5472 C6.6384,5.5472 5.5664,6.6072 5.5664,7.9232 C5.5664,9.2192 6.6304,10.2992 7.9424,10.2992 C9.2464,10.2992 10.3144,9.2192 10.3144,7.9232 C10.3144,6.6072 9.2464,5.5472 7.9424,5.5472 M7.9424,4.3232 L7.9424,4.3232 C9.9184,4.3232 11.5344,5.9472 11.5344,7.9232 C11.5344,9.8992 9.9184,11.5072 7.9424,11.5072 C5.9624,11.5072 4.3504,9.8992 4.3504,7.9232 C4.3504,5.9472 5.9624,4.3232 7.9424,4.3232 M7.9424,2.8352 C11.2424,2.8352 14.2984,4.7072 15.8184,7.6392 C15.9144,7.8192 15.9024,8.0272 15.8184,8.1872 L15.8184,8.1992 C14.2984,11.1312 11.2424,12.9992 7.9424,12.9992 C4.6464,12.9992 1.5784,11.1312 0.0704,8.1872 C-0.0256,8.0152 -0.0176,7.8112 0.0704,7.6392 C1.5784,4.7072 4.6464,2.8352 7.9424,2.8352" id="Fill-1" fill="#1D1D1B" mask="url(#mask-2)"></path>
                        </g>
                    </g>
                </g>
            </g>
        </g>
    </g>
</svg>