<?xml version="1.0" encoding="UTF-8"?>
<svg width="24px" height="19px" viewBox="0 0 24 19" version="1.1" xmlns="http://www.w3.org/2000/svg" xmlns:xlink="http://www.w3.org/1999/xlink">
    <title>book</title>
    <defs>
        <filter id="filter-1">
            <feColorMatrix in="SourceGraphic" type="matrix" values="0 0 0 0 0.996078 0 0 0 0 0.701961 0 0 0 0 0.164706 0 0 0 1.000000 0"></feColorMatrix>
        </filter>
        <polygon id="path-2" points="0 0.00192 23.817 0.00192 23.817 18.06792 0 18.06792"></polygon>
    </defs>
    <g id="改版" stroke="none" stroke-width="1" fill="none" fill-rule="evenodd">
        <g id="社区方案" transform="translate(-446.000000, -2028.000000)">
            <g id="编组-8" transform="translate(420.000000, 1879.000000)">
                <g id="编组备份" transform="translate(0.000000, 126.000000)">
                    <g id="book" transform="translate(26.000000, 20.000000)" filter="url(#filter-1)">
                        <g transform="translate(0.000000, 3.000000)">
                            <mask id="mask-3" fill="white">
                                <use xlink:href="#path-2"></use>
                            </mask>
                            <g id="Clip-2"></g>
                            <path d="M11.367,3.31992 C8.193,1.23192 6.813,1.84992 5.283,2.55192 C4.305,2.99592 3.267,3.45792 1.833,3.51192 L1.833,16.22592 C2.901,16.16592 3.741,15.78792 4.527,15.42792 C6.369,14.59392 8.049,13.84392 11.367,15.71592 L11.367,3.31992 Z M12.459,15.71592 C15.777,13.84392 17.451,14.59392 19.281,15.42792 C20.073,15.78792 20.913,16.16592 21.981,16.22592 L21.981,3.51192 C20.553,3.45792 19.509,2.99592 18.537,2.55192 C16.995,1.84992 15.621,1.23192 12.459,3.31992 L12.459,15.71592 Z M5.127,5.49192 C6.405,4.90992 7.581,4.36992 9.555,5.19192 C9.837,5.29392 10.155,5.17392 10.269,4.89192 C10.389,4.60392 10.245,4.28592 9.969,4.16592 C7.551,3.18792 6.177,3.81192 4.683,4.48992 C4.137,4.73592 3.561,4.98192 2.925,5.14992 C2.631,5.22792 2.457,5.53392 2.529,5.82792 C2.613,6.12192 2.913,6.29592 3.201,6.22392 C3.927,6.03792 4.533,5.75592 5.127,5.49192 Z M5.127,13.54392 C6.405,12.97992 7.581,12.43992 9.555,13.24392 C9.837,13.35792 10.155,13.21392 10.269,12.93792 C10.389,12.66192 10.245,12.34992 9.969,12.23592 C7.551,11.25192 6.177,11.85792 4.683,12.54792 C4.137,12.78192 3.561,13.05192 2.925,13.21392 C2.631,13.29192 2.457,13.57992 2.529,13.87392 C2.613,14.17992 2.913,14.34192 3.201,14.28192 C3.927,14.09592 4.533,13.81992 5.127,13.54392 Z M5.127,10.85592 C6.405,10.27992 7.581,9.74592 9.549,10.56192 C9.837,10.67592 10.149,10.54392 10.269,10.25592 C10.389,9.97392 10.245,9.66192 9.969,9.54792 C7.551,8.56392 6.177,9.18792 4.683,9.86592 C4.137,10.09992 3.561,10.36392 2.925,10.52592 C2.631,10.59792 2.457,10.89792 2.529,11.19192 C2.613,11.49192 2.901,11.66592 3.201,11.59992 C3.921,11.41392 4.527,11.13192 5.127,10.85592 Z M5.127,8.17992 C6.405,7.59792 7.581,7.07592 9.549,7.87392 C9.837,7.98792 10.149,7.84992 10.269,7.57992 C10.389,7.29192 10.245,6.97992 9.969,6.85392 C7.551,5.86992 6.177,6.49992 4.683,7.16592 C4.137,7.41792 3.561,7.68792 2.925,7.84392 C2.631,7.91592 2.457,8.21592 2.529,8.51592 C2.613,8.80392 2.901,8.97792 3.201,8.89392 C3.921,8.71992 4.527,8.43792 5.127,8.17992 Z M19.137,4.48992 C17.637,3.81192 16.257,3.18792 13.845,4.16592 C13.569,4.28592 13.431,4.60392 13.545,4.89192 C13.665,5.17392 13.977,5.29392 14.259,5.19192 C16.233,4.36992 17.409,4.90992 18.687,5.49192 C19.281,5.75592 19.893,6.03792 20.613,6.22392 C20.913,6.29592 21.207,6.12192 21.279,5.82792 C21.363,5.53392 21.183,5.22792 20.889,5.14992 C20.253,4.98192 19.677,4.73592 19.137,4.48992 Z M19.137,12.54792 C17.637,11.85792 16.257,11.25192 13.845,12.23592 C13.569,12.34992 13.431,12.66192 13.545,12.93792 C13.665,13.21392 13.977,13.35792 14.259,13.24392 C16.233,12.43992 17.409,12.97992 18.687,13.54392 C19.281,13.81992 19.893,14.09592 20.613,14.28192 C20.913,14.34192 21.207,14.17992 21.279,13.87392 C21.363,13.57992 21.183,13.29192 20.889,13.21392 C20.253,13.05192 19.677,12.78192 19.137,12.54792 Z M19.137,9.86592 C17.637,9.18792 16.257,8.56392 13.845,9.54792 C13.569,9.66192 13.431,9.97392 13.545,10.25592 C13.665,10.54392 13.977,10.67592 14.259,10.56192 C16.233,9.74592 17.409,10.27992 18.687,10.85592 C19.281,11.13192 19.893,11.41392 20.613,11.59992 C20.913,11.66592 21.207,11.49192 21.279,11.19192 C21.363,10.89792 21.183,10.59792 20.889,10.52592 C20.253,10.36392 19.677,10.09992 19.137,9.86592 Z M19.137,7.16592 C17.637,6.49992 16.257,5.86992 13.845,6.85392 C13.569,6.97992 13.431,7.29192 13.545,7.57992 C13.665,7.84992 13.977,7.98792 14.259,7.87392 C16.233,7.07592 17.409,7.59792 18.687,8.17992 C19.281,8.43792 19.893,8.71992 20.613,8.89392 C20.913,8.97792 21.207,8.80392 21.279,8.51592 C21.363,8.21592 21.183,7.91592 20.889,7.84392 C20.253,7.68792 19.677,7.41792 19.137,7.16592 Z M4.527,0.87792 C6.477,0.00192 8.217,-0.79008 11.901,1.48992 C15.597,-0.79008 17.349,0.00192 19.281,0.87792 C20.271,1.32192 21.321,1.80792 22.809,1.66992 C23.325,1.62792 23.757,1.99992 23.805,2.49792 L23.805,2.58792 L23.817,2.58792 L23.817,17.13192 C23.817,17.62992 23.403,18.04392 22.899,18.04392 C20.961,18.19992 19.725,17.61792 18.537,17.08992 C16.989,16.41192 15.603,15.76392 12.417,17.88192 C12.105,18.09192 11.697,18.08592 11.409,17.88192 C8.205,15.76392 6.825,16.41192 5.283,17.08992 C4.089,17.62992 2.817,18.21192 0.843,18.03792 C0.363,17.99592 0.003,17.59392 0.003,17.13192 L-0.003,17.13192 L-0.003,2.58792 C-0.003,2.07192 0.417,1.65792 0.921,1.65792 C0.969,1.65792 1.023,1.66992 1.071,1.66992 C2.529,1.78992 3.561,1.32192 4.527,0.87792 Z" fill="#231916" mask="url(#mask-3)"></path>
                        </g>
                    </g>
                </g>
            </g>
        </g>
    </g>
</svg>