<!-- <?xml version="1.0" encoding="UTF-8"?> -->
<svg width="20px" height="16px" viewBox="0 0 23 16" version="1.1" xmlns="http://www.w3.org/2000/svg" xmlns:xlink="http://www.w3.org/1999/xlink">
    <!-- Generator: Sketch 56.3 (81716) - https://sketch.com -->
    <title>ico_阅读量</title>
    <desc>Created with Sketch.</desc>
    <g id="Page-1" stroke="none" stroke-width="1" fill="none" fill-rule="evenodd">
        <g id="openGauss-博客" transform="translate(-677.000000, -766.000000)" fill="#7C7C7C" fill-rule="nonzero">
            <g id="编组备份-3" transform="translate(269.000000, 691.000000)">
                <g id="ico_阅读量" transform="translate(408.000000, 75.000000)">
                    <path d="M11.500407,0 C14.8592716,0 17.7093406,1.4744 20.0481719,3.9064 C21.0605402,4.96390551 21.9305688,6.14475744 22.6369235,7.41999999 C22.7264715,7.58319998 22.787527,7.7032 22.820904,7.77279999 L23,8.1496 L22.7891551,8.51039999 C22.7508937,8.57599999 22.6800694,8.69119999 22.5791244,8.84639999 C21.7740619,10.0710993 20.8341035,11.2048767 19.7762715,12.2272 C17.3364952,14.576 14.5629491,16 11.500407,16 C8.43786501,16 5.66431884,14.576 3.22454254,12.2272 C2.16680489,11.2053775 1.22684979,10.0721406 0.421689732,8.84799999 C0.349234765,8.73749364 0.279208284,8.6254677 0.211658929,8.51199999 L0,8.15040001 L0.179910104,7.7744 C0.302021024,7.51759999 0.53565993,7.0888 0.88245497,6.5456 C1.48270776,5.60123324 2.17611466,4.71723615 2.95264219,3.9064 C5.29147348,1.4744 8.14154249,0 11.500407,0 Z M20.7393197,7.39440001 C20.1955605,6.53967542 19.5676033,5.73955998 18.86451,5.00560001 C16.808162,2.86800001 14.3578027,1.6 11.500407,1.6 C8.64301136,1.6 6.19265211,2.86799999 4.13630412,5.00560001 C3.24909195,5.93232548 2.48234526,6.96367434 1.85364386,8.07600001 C2.57911714,9.16366776 3.42076003,10.1720566 4.36424452,11.084 C6.52642198,13.1672 8.92956501,14.4 11.500407,14.4 C14.0712491,14.4 16.4743921,13.1664 18.6365696,11.0848 C19.5800997,10.1726057 20.4217441,9.1639468 21.1471702,8.07600001 C21.0307578,7.86800002 20.8948076,7.63840002 20.7393197,7.39440001 Z M11.500407,4 C13.7317807,4 15.5707712,5.8072 15.5707712,8 C15.5707712,10.2112 13.7741125,12 11.500407,12 C9.25030969,12 7.43004284,10.2344 7.43004284,8 C7.43004284,5.78879999 9.22670161,4 11.500407,4 Z M11.500407,5.6 C10.1303224,5.6 9.05818852,6.6672 9.05818852,8 C9.05818852,9.34639999 10.1441617,10.4 11.500407,10.4 C12.8704916,10.4 13.9426256,9.3328 13.9426256,8 C13.9426256,6.6912 12.8322302,5.6 11.500407,5.6 Z" id="形状"></path>
                </g>
            </g>
        </g>
    </g>
</svg>