<!-- <?xml version="1.0" encoding="UTF-8"?> -->
<svg width="16px" height="16px" viewBox="0 0 18 18" version="1.1" xmlns="http://www.w3.org/2000/svg" xmlns:xlink="http://www.w3.org/1999/xlink">
    <!-- Generator: Sketch 56.3 (81716) - https://sketch.com -->
    <title>时间</title>
    <desc>Created with Sketch.</desc>
    <g id="Page-1" stroke="none" stroke-width="1" fill="none" fill-rule="evenodd">
        <g id="openGauss-博客" transform="translate(-543.000000, -765.000000)" fill="#ffffff" fill-rule="nonzero">
            <g id="编组备份-3" transform="translate(269.000000, 691.000000)">
                <g id="时间" transform="translate(274.000000, 74.000000)">
                    <path d="M9,18 C4.02942858,18 0,13.9700725 0,8.99967859 C0,4.02928466 4.02942858,0 9,0 C13.9705714,0 18,4.02928466 18,8.99967859 C18,13.9700725 13.9705714,18 9,18 Z M9,1.50032142 C4.858125,1.50032142 1.5,4.85844642 1.5,9.00032142 C1.5,13.1421964 4.858125,16.5003214 9,16.5003214 C13.141875,16.5003214 16.5,13.1421964 16.5,9.00032142 C16.5,4.85844642 13.141875,1.50032142 9,1.50032142 Z M11.8928571,11.1431556 L8.67857143,11.1431556 C8.50114285,11.1431556 8.35714285,10.9991607 8.35714285,10.8217385 L8.35714285,10.1789043 L8.35714285,10.1782615 L8.35714285,5.03623084 C8.35714285,4.85880861 8.50114285,4.71481375 8.67857143,4.71481375 L9.32142857,4.71481375 C9.49885715,4.71481375 9.64285715,4.85880861 9.64285715,5.03623084 L9.64285715,9.8568444 L11.8928571,9.8568444 C12.0702857,9.8568444 12.2142857,10.0008393 12.2142857,10.1782615 L12.2142857,10.8217385 C12.2142857,10.9991607 12.0702857,11.1431556 11.8928571,11.1431556 Z" id="形状"></path>
                </g>
            </g>
        </g>
    </g>
</svg>