<?xml version="1.0" encoding="UTF-8"?>
<svg width="50px" height="50px" viewBox="0 0 50 50" version="1.1" xmlns="http://www.w3.org/2000/svg" xmlns:xlink="http://www.w3.org/1999/xlink">
    <!-- Generator: Sketch 56.3 (81716) - https://sketch.com -->
    <title>头像</title>
    <desc>Created with Sketch.</desc>
    <g id="Page-1" stroke="none" stroke-width="1" fill="none" fill-rule="evenodd">
        <g id="openGauss-博客详情" transform="translate(-269.000000, -748.000000)" fill="#666666" fill-rule="nonzero">
            <g id="编组" transform="translate(269.000000, 748.000000)">
                <g id="头像">
                    <path d="M48.0351906,15.2688172 C46.7741935,12.2922776 44.9755621,9.61876833 42.6783969,7.32160313 C40.3812317,5.02443793 37.7077224,3.22580645 34.7311828,1.96480938 C31.6471163,0.664711632 28.372434,0 25,0 C21.627566,0 18.3528837,0.659824047 15.2688172,1.96480938 C14.7067449,2.20430108 14.1495601,2.46334311 13.6119257,2.7370479 C11.2952102,3.92473118 9.18377322,5.45943304 7.32649071,7.32160313 C5.02932551,9.61876833 3.23069404,12.2922776 1.96969697,15.2688172 C0.659824047,18.3528837 0,21.627566 0,25 C0,28.3773216 0.659824047,31.6520039 1.96480938,34.7311828 C3.22580645,37.7077224 5.02443793,40.3812317 7.32160313,42.6783969 C9.61876833,44.9755621 12.2922776,46.7741935 15.2688172,48.0351906 C18.3528837,49.340176 21.627566,50 25,50 C28.372434,50 31.6471163,49.340176 34.7311828,48.0351906 C37.7077224,46.7741935 40.3812317,44.9755621 42.6783969,42.6783969 C44.9755621,40.3812317 46.7741935,37.7077224 48.0351906,34.7311828 C49.340176,31.6520039 50,28.3773216 50,25 C50,21.627566 49.340176,18.3528837 48.0351906,15.2688172 Z M34.7311828,46.568915 C31.6471163,47.8739003 28.372434,48.5337243 25,48.5337243 C21.627566,48.5337243 18.3528837,47.8739003 15.2688172,46.568915 C12.5953079,45.4398827 10.1661779,43.8709677 8.0400782,41.9012708 C9.30107527,38.9100684 14.6187683,36.0410557 19.2375367,34.3695015 C19.6187683,34.2277615 21.4418377,33.2355816 20.4203324,30.5620723 C17.8005865,27.8934506 15.826002,23.5630499 15.826002,19.3059629 C15.826002,12.7859238 20.14174,9.36461388 25.1857283,9.36461388 C30.2248289,9.36461388 34.5650049,12.7859238 34.5650049,19.3059629 C34.5650049,23.5483871 32.5757576,27.8592375 29.9804497,30.5327468 L29.9902248,30.5327468 C28.9931574,33.5630499 30.5865103,34.2815249 30.8406647,34.3695015 C35.5718475,35.9384164 40.801564,38.6852395 42.228739,41.6568915 C40.0342131,43.7390029 37.5171065,45.3910068 34.7311828,46.568915 Z" id="形状"></path>
                </g>
            </g>
        </g>
    </g>
</svg>